<svg width="100" height="100" viewBox="0 0 100 100" fill="none" xmlns="http://www.w3.org/2000/svg">
<rect width="100" height="100" rx="50" fill="#643FDB"/>
<path fill-rule="evenodd" clip-rule="evenodd" d="M48.5118 8.79922C46.6564 9.13427 45.1387 10.0207 43.0183 12.0141C42.205 12.7775 35.9599 19.9707 28.1971 29.0809C17.831 41.2491 14.7121 45.0026 14.4943 45.5836C13.75 47.5473 15.097 49.8885 16.9669 49.8885C17.8746 49.8885 18.4519 49.5322 19.5666 48.2811L20.4634 47.2759L20.5251 56.068C20.5941 65.6363 20.6159 65.9332 21.5018 69.4746C22.346 72.798 23.6577 75.9341 25.3832 78.7545C26.5124 80.6079 29.3917 83.9415 31.0873 85.3496C32.743 86.728 36.0108 88.6536 37.9133 89.3788C39.4746 89.9684 42.7896 90.7784 44.9572 91.1008C46.8307 91.3722 52.5239 91.3722 54.3974 91.1008C56.5651 90.7784 59.88 89.9684 61.4413 89.3788C63.3439 88.6536 66.6116 86.728 68.2673 85.3496C70.0464 83.8737 72.864 80.5782 74.1057 78.5212C75.9258 75.4816 77.2718 72.0901 78.0815 68.5034C78.775 65.2885 78.8622 63.7998 78.8658 55.2113L78.8694 47.2504L79.7771 48.2726C80.9027 49.5322 81.4764 49.8885 82.3877 49.8885C84.2576 49.8885 85.6047 47.5473 84.864 45.5879C84.6425 45.0068 81.5018 41.2236 71.1575 29.0809C62.6032 19.0418 57.1896 12.8157 56.2274 11.9165C53.5006 9.35906 50.9953 8.34964 48.5118 8.79922ZM50.7884 15.3265C52.1064 15.9712 53.6495 17.6422 63.293 28.8773L73.3505 40.5959V52.0643C73.3505 64.805 73.3287 65.1867 72.3956 68.4864C70.5802 74.8864 66.1396 80.5188 61.1508 82.7285L60.7877 82.8897V79.8148C60.7877 76.5193 60.6244 75.3318 59.88 73.1942C58.6201 69.5679 55.6719 66.6372 52.3242 65.6829C51.4533 65.4769 50.5657 65.383 49.6773 65.403C48.6207 65.403 47.6477 65.5048 47.0304 65.6829C45.3912 66.1678 43.8661 67.0766 42.5677 68.3422C41.2694 69.6077 40.2309 71.1977 39.5291 72.9949C38.7666 75.0222 38.5741 76.3624 38.5705 79.73L38.5669 82.8897L38.2038 82.7285C36.087 81.7912 33.7451 79.942 31.8062 77.6814C29.574 75.108 27.9084 71.9415 26.9518 68.4525C26.0259 65.1909 26.0041 64.788 26.0041 52.0643V40.5959L36.0616 28.8773C45.6216 17.7355 47.2229 15.9966 48.5336 15.335C49.2589 15.0098 50.0612 15.0068 50.7884 15.3265ZM52.0083 72.2696C52.9523 72.7785 53.7439 73.5504 54.3139 74.5175C55.5303 76.5829 55.7772 80.451 54.8949 83.5598C54.5971 84.6116 54.5971 84.6116 53.9145 84.7474C53.5405 84.8237 51.6343 84.8831 49.6773 84.8831C47.7203 84.8831 45.8141 84.8237 45.4401 84.7474C44.7575 84.6116 44.7575 84.6116 44.4598 83.5598C43.8519 81.3842 43.7591 79.057 44.1911 76.8247C44.4053 75.7011 44.867 74.6623 45.5306 73.8112C46.1942 72.9602 47.0366 72.3264 47.9744 71.9727C48.9766 71.591 51.028 71.7437 52.0083 72.2696Z" fill="white"/>
</svg>
