<svg width="104" height="23" viewBox="0 0 104 23" fill="none" xmlns="http://www.w3.org/2000/svg">
<rect x="41.6" width="21.7905" height="23" rx="10.8952" fill="#643FDB"/>
<path fill-rule="evenodd" clip-rule="evenodd" d="M52.1709 2.02382C51.7667 2.10089 51.4359 2.30476 50.9739 2.76324C50.7967 2.93883 49.4358 4.59326 47.7443 6.68861C45.4855 9.48729 44.8058 10.3506 44.7584 10.4842C44.5962 10.9359 44.8897 11.4744 45.2972 11.4744C45.495 11.4744 45.6208 11.3924 45.8636 11.1046L46.0591 10.8735L46.0725 12.8956C46.0876 15.0963 46.0923 15.1646 46.2853 15.9792C46.4693 16.7435 46.7551 17.4648 47.1311 18.1135C47.3772 18.5398 48.0046 19.3066 48.3741 19.6304C48.7348 19.9474 49.4469 20.3903 49.8615 20.5571C50.2017 20.6927 50.924 20.879 51.3964 20.9532C51.8046 21.0156 53.0452 21.0156 53.4535 20.9532C53.9258 20.879 54.6481 20.6927 54.9883 20.5571C55.4029 20.3903 56.115 19.9474 56.4758 19.6304C56.8634 19.2909 57.4774 18.533 57.748 18.0599C58.1446 17.3608 58.4379 16.5807 58.6143 15.7558C58.7654 15.0164 58.7844 14.674 58.7852 12.6986L58.786 10.8676L58.9838 11.1027C59.2291 11.3924 59.3541 11.4744 59.5527 11.4744C59.9601 11.4744 60.2537 10.9359 60.0923 10.4852C60.044 10.3516 59.3596 9.48143 57.1055 6.68861C55.2415 4.37963 54.0619 2.94761 53.8522 2.74081C53.258 2.15259 52.7121 1.92042 52.1709 2.02382M52.667 3.5251C52.9542 3.67337 53.2905 4.05772 55.3918 6.64178L57.5834 9.33706V11.9748C57.5834 14.9051 57.5787 14.9929 57.3753 15.7519C56.9798 17.2239 56.0121 18.5193 54.9251 19.0276L54.8459 19.0646V18.3574C54.8459 17.5994 54.8103 17.3263 54.6481 16.8347C54.3736 16.0006 53.7312 15.3266 53.0017 15.1071C52.8119 15.0597 52.6185 15.0381 52.4249 15.0427C52.1947 15.0427 51.9826 15.0661 51.8481 15.1071C51.4909 15.2186 51.1586 15.4276 50.8757 15.7187C50.5928 16.0098 50.3665 16.3755 50.2136 16.7888C50.0474 17.2551 50.0055 17.5634 50.0047 18.3379L50.0039 19.0646L49.9248 19.0276C49.4635 18.812 48.9532 18.3867 48.5307 17.8667C48.0443 17.2748 47.6814 16.5465 47.4729 15.7441C47.2712 14.9939 47.2664 14.9012 47.2664 11.9748V9.33706L49.458 6.64178C51.5412 4.07918 51.8901 3.67923 52.1757 3.52705C52.3338 3.45227 52.5086 3.45157 52.667 3.5251M52.9329 16.622C53.1386 16.7391 53.311 16.9166 53.4353 17.139C53.7003 17.6141 53.7541 18.5037 53.5618 19.2188C53.497 19.4607 53.497 19.4607 53.3482 19.4919C53.2667 19.5095 52.8514 19.5231 52.4249 19.5231C51.9985 19.5231 51.5831 19.5095 51.5016 19.4919C51.3529 19.4607 51.3529 19.4607 51.288 19.2188C51.1555 18.7184 51.1353 18.1831 51.2294 17.6697C51.2761 17.4112 51.3767 17.1723 51.5213 16.9766C51.6659 16.7808 51.8495 16.6351 52.0539 16.5537C52.2722 16.4659 52.7192 16.501 52.9329 16.622" fill="white"/>
<path d="M0.996 16V8.152H2.424L4.872 12.568L5.676 14.236H5.724C5.692 13.836 5.652 13.4 5.604 12.928C5.564 12.456 5.544 12 5.544 11.56V8.152H6.876V16H5.448L3 11.584L2.196 9.916H2.148C2.18 10.332 2.216 10.768 2.256 11.224C2.304 11.68 2.328 12.128 2.328 12.568V16H0.996ZM8.871 16V8.152H13.599V9.328H10.263V11.332H13.083V12.508H10.263V14.824H13.719V16H8.871ZM15.328 16V8.152H16.72V16H15.328ZM22.0028 16.144C21.2988 16.144 20.6668 15.988 20.1068 15.676C19.5468 15.364 19.1068 14.908 18.7868 14.308C18.4668 13.7 18.3068 12.964 18.3068 12.1C18.3068 11.244 18.4708 10.512 18.7988 9.904C19.1268 9.288 19.5708 8.82 20.1308 8.5C20.6908 8.172 21.3188 8.008 22.0148 8.008C22.5748 8.008 23.0468 8.112 23.4308 8.32C23.8228 8.52 24.1428 8.748 24.3908 9.004L23.6468 9.904C23.4468 9.712 23.2228 9.552 22.9748 9.424C22.7348 9.288 22.4308 9.22 22.0628 9.22C21.3668 9.22 20.8028 9.476 20.3708 9.988C19.9468 10.492 19.7348 11.184 19.7348 12.064C19.7348 12.96 19.9388 13.664 20.3468 14.176C20.7548 14.68 21.3508 14.932 22.1348 14.932C22.3588 14.932 22.5708 14.904 22.7708 14.848C22.9708 14.784 23.1348 14.696 23.2628 14.584V12.892H21.7748V11.752H24.5108V15.208C24.2468 15.472 23.8948 15.696 23.4548 15.88C23.0228 16.056 22.5388 16.144 22.0028 16.144ZM26.2499 16V8.152H27.6419V11.308H30.8219V8.152H32.2139V16H30.8219V12.52H27.6419V16H26.2499ZM34.2069 16V8.152H36.7149C37.2589 8.152 37.7389 8.212 38.1549 8.332C38.5789 8.452 38.9109 8.656 39.1509 8.944C39.3989 9.224 39.5229 9.604 39.5229 10.084C39.5229 10.452 39.4269 10.8 39.2349 11.128C39.0429 11.448 38.7749 11.668 38.4309 11.788V11.836C38.8629 11.932 39.2189 12.136 39.4989 12.448C39.7869 12.752 39.9309 13.168 39.9309 13.696C39.9309 14.216 39.7989 14.648 39.5349 14.992C39.2789 15.336 38.9229 15.592 38.4669 15.76C38.0109 15.92 37.4949 16 36.9189 16H34.2069ZM35.5989 11.392H36.5949C37.1389 11.392 37.5349 11.292 37.7829 11.092C38.0309 10.892 38.1549 10.624 38.1549 10.288C38.1549 9.904 38.0269 9.632 37.7709 9.472C37.5149 9.312 37.1309 9.232 36.6189 9.232H35.5989V11.392ZM35.5989 14.92H36.7749C37.3509 14.92 37.7949 14.816 38.1069 14.608C38.4189 14.392 38.5749 14.064 38.5749 13.624C38.5749 13.208 38.4229 12.908 38.1189 12.724C37.8149 12.532 37.3669 12.436 36.7749 12.436H35.5989V14.92Z" fill="black"/>
<path d="M65.377 16V8.152H68.029C68.573 8.152 69.061 8.224 69.493 8.368C69.933 8.512 70.277 8.756 70.525 9.1C70.781 9.436 70.909 9.896 70.909 10.48C70.909 11.08 70.765 11.564 70.477 11.932C70.197 12.3 69.821 12.564 69.349 12.724L71.221 16H69.661L67.969 12.928H66.769V16H65.377ZM66.769 11.824H67.885C68.421 11.824 68.829 11.712 69.109 11.488C69.397 11.256 69.541 10.92 69.541 10.48C69.541 10.032 69.397 9.72 69.109 9.544C68.829 9.36 68.421 9.268 67.885 9.268H66.769V11.824ZM72.4785 16V8.152H73.8705V11.308H77.0505V8.152H78.4425V16H77.0505V12.52H73.8705V16H72.4785ZM83.4835 16.144C82.8035 16.144 82.2035 15.98 81.6835 15.652C81.1635 15.316 80.7555 14.844 80.4595 14.236C80.1715 13.62 80.0275 12.888 80.0275 12.04C80.0275 11.192 80.1715 10.468 80.4595 9.868C80.7555 9.268 81.1635 8.808 81.6835 8.488C82.2035 8.168 82.8035 8.008 83.4835 8.008C84.1715 8.008 84.7755 8.168 85.2955 8.488C85.8155 8.808 86.2195 9.268 86.5075 9.868C86.8035 10.468 86.9515 11.192 86.9515 12.04C86.9515 12.888 86.8035 13.62 86.5075 14.236C86.2195 14.844 85.8155 15.316 85.2955 15.652C84.7755 15.98 84.1715 16.144 83.4835 16.144ZM83.4835 14.932C84.0995 14.932 84.5915 14.672 84.9595 14.152C85.3275 13.624 85.5115 12.92 85.5115 12.04C85.5115 11.16 85.3275 10.472 84.9595 9.976C84.5915 9.472 84.0995 9.22 83.4835 9.22C82.8675 9.22 82.3755 9.472 82.0075 9.976C81.6395 10.472 81.4555 11.16 81.4555 12.04C81.4555 12.92 81.6395 13.624 82.0075 14.152C82.3755 14.672 82.8675 14.932 83.4835 14.932ZM91.5695 16.144C90.8895 16.144 90.2895 15.98 89.7695 15.652C89.2495 15.316 88.8415 14.844 88.5455 14.236C88.2575 13.62 88.1135 12.888 88.1135 12.04C88.1135 11.192 88.2575 10.468 88.5455 9.868C88.8415 9.268 89.2495 8.808 89.7695 8.488C90.2895 8.168 90.8895 8.008 91.5695 8.008C92.2575 8.008 92.8615 8.168 93.3815 8.488C93.9015 8.808 94.3055 9.268 94.5935 9.868C94.8895 10.468 95.0375 11.192 95.0375 12.04C95.0375 12.888 94.8895 13.62 94.5935 14.236C94.3055 14.844 93.9015 15.316 93.3815 15.652C92.8615 15.98 92.2575 16.144 91.5695 16.144ZM91.5695 14.932C92.1855 14.932 92.6775 14.672 93.0455 14.152C93.4135 13.624 93.5975 12.92 93.5975 12.04C93.5975 11.16 93.4135 10.472 93.0455 9.976C92.6775 9.472 92.1855 9.22 91.5695 9.22C90.9535 9.22 90.4615 9.472 90.0935 9.976C89.7255 10.472 89.5415 11.16 89.5415 12.04C89.5415 12.92 89.7255 13.624 90.0935 14.152C90.4615 14.672 90.9535 14.932 91.5695 14.932ZM96.6074 16V8.152H98.7074C99.9074 8.152 100.843 8.476 101.515 9.124C102.187 9.772 102.523 10.744 102.523 12.04C102.523 13.344 102.191 14.332 101.527 15.004C100.863 15.668 99.9474 16 98.7794 16H96.6074ZM97.9994 14.872H98.6114C99.4034 14.872 100.015 14.644 100.447 14.188C100.879 13.724 101.095 13.008 101.095 12.04C101.095 11.08 100.879 10.38 100.447 9.94C100.015 9.5 99.4034 9.28 98.6114 9.28H97.9994V14.872Z" fill="black"/>
</svg>
